<?xml version="1.0" standalone="no"?>
<!DOCTYPE svg PUBLIC "-//W3C//DTD SVG 20010904//EN"
 "http://www.w3.org/TR/2001/REC-SVG-20010904/DTD/svg10.dtd">
<svg version="1.0" xmlns="http://www.w3.org/2000/svg"
 width="256.000000pt" height="256.000000pt" viewBox="0 0 256.000000 256.000000"
 preserveAspectRatio="xMidYMid meet">

<g transform="translate(0.000000,256.000000) scale(0.100000,-0.100000)"
fill="#000000" stroke="none">
<path d="M930 2120 c-70 -13 -120 -51 -156 -120 -16 -29 -19 -55 -17 -150 1
-96 6 -131 31 -210 16 -52 27 -98 25 -102 -2 -4 -28 -21 -58 -38 -168 -96
-271 -253 -282 -430 -7 -109 8 -185 52 -275 83 -168 223 -269 460 -333 92 -24
116 -26 290 -27 167 0 202 3 285 24 331 82 523 295 522 579 -1 210 -107 367
-327 488 -11 6 -18 17 -16 25 2 8 17 61 34 119 61 217 33 358 -87 428 -28 17
-55 23 -102 24 -120 2 -193 -70 -240 -234 -13 -46 -24 -99 -24 -119 0 -20 -3
-57 -6 -83 -6 -44 -8 -46 -40 -46 l-34 0 0 51 c0 69 -36 242 -61 290 -55 108
-145 158 -249 139z m120 -88 c66 -49 96 -134 113 -326 l12 -131 94 -3 c54 -2
98 2 105 8 8 6 15 52 19 127 13 258 91 376 228 343 106 -26 134 -139 84 -336
-16 -60 -34 -123 -42 -141 -24 -58 -18 -69 50 -103 130 -64 224 -158 268 -270
27 -70 36 -207 19 -281 -31 -130 -131 -248 -270 -319 -201 -102 -538 -122
-787 -45 -197 60 -340 189 -383 345 -17 58 -13 210 5 276 32 113 136 224 273
293 34 17 63 37 63 44 2 15 3 11 -32 128 -58 198 -59 312 -2 371 48 50 130 59
183 20z"/>
<path d="M963 1240 c-37 -15 -56 -65 -51 -138 4 -55 8 -68 32 -88 37 -32 71
-30 107 5 27 27 29 35 29 101 0 66 -2 74 -29 101 -30 30 -50 34 -88 19z"/>
<path d="M1523 1238 c-73 -35 -67 -216 8 -242 71 -24 114 23 114 127 0 65 -2
70 -33 98 -34 31 -53 34 -89 17z"/>
</g>
</svg>
