<svg width="20" height="20" viewBox="0 0 20 20" fill="none" xmlns="http://www.w3.org/2000/svg">
<path d="M16.8248 11.7163L15.8832 10.1497C15.6748 9.80801 15.4915 9.14968 15.4915 8.74968V7.19134C15.4915 4.16634 13.0332 1.70801 10.0165 1.70801C6.99151 1.71634 4.53318 4.16634 4.53318 7.19134V8.74134C4.53318 9.14134 4.34984 9.79967 4.14984 10.1413L3.20818 11.708C2.84984 12.3163 2.76651 13.008 2.99151 13.608C3.21651 14.2163 3.72484 14.6997 4.39151 14.9163C5.29151 15.2163 6.19984 15.433 7.12484 15.5913C7.21651 15.608 7.30818 15.6163 7.39984 15.633C7.51651 15.6497 7.64151 15.6663 7.76651 15.683C7.98318 15.7163 8.19984 15.7413 8.42484 15.758C8.94984 15.808 9.48318 15.833 10.0165 15.833C10.5415 15.833 11.0665 15.808 11.5832 15.758C11.7748 15.7413 11.9665 15.7247 12.1498 15.6997C12.2998 15.683 12.4498 15.6663 12.5998 15.6413C12.6915 15.633 12.7832 15.6163 12.8748 15.5997C13.8082 15.4497 14.7332 15.2163 15.6332 14.9163C16.2748 14.6997 16.7665 14.2163 16.9998 13.5997C17.2332 12.9747 17.1665 12.2913 16.8248 11.7163ZM10.6248 8.33301C10.6248 8.68301 10.3415 8.96634 9.99151 8.96634C9.64151 8.96634 9.35818 8.68301 9.35818 8.33301V5.74968C9.35818 5.39968 9.64151 5.11634 9.99151 5.11634C10.3415 5.11634 10.6248 5.39968 10.6248 5.74968V8.33301Z" fill="white"/>
<path d="M12.3582 16.6753C12.0082 17.642 11.0832 18.3337 9.9999 18.3337C9.34157 18.3337 8.69157 18.067 8.23324 17.592C7.96657 17.342 7.76657 17.0087 7.6499 16.667C7.75824 16.6837 7.86657 16.692 7.98324 16.7087C8.1749 16.7337 8.3749 16.7587 8.5749 16.7753C9.0499 16.817 9.53324 16.842 10.0166 16.842C10.4916 16.842 10.9666 16.817 11.4332 16.7753C11.6082 16.7587 11.7832 16.7503 11.9499 16.7253C12.0832 16.7087 12.2166 16.692 12.3582 16.6753Z" fill="white"/>
</svg>
