<?xml version="1.0" encoding="UTF-8"?>
<svg xmlns="http://www.w3.org/2000/svg" xmlns:xlink="http://www.w3.org/1999/xlink" width="30px" height="21px" viewBox="0 0 29 21" version="1.1">
<g id="surface1">
<path style=" stroke:none;fill-rule:evenodd;fill:rgb(38.823529%,18.823529%,0.392157%);fill-opacity:1;" d="M 10.066406 5.628906 C 9.847656 4.476562 10.71875 3.414062 11.855469 3.414062 C 12.863281 3.414062 13.691406 4.253906 13.691406 5.273438 L 13.691406 7.578125 C 13.953125 7.578125 14.214844 7.53125 14.476562 7.53125 C 14.742188 7.53125 14.957031 7.53125 15.222656 7.578125 L 15.222656 5.273438 C 15.222656 4.253906 16.050781 3.414062 17.054688 3.414062 C 18.191406 3.414062 19.066406 4.476562 18.890625 5.628906 L 18.410156 8.328125 C 20.113281 9.082031 21.425781 10.410156 21.425781 12.050781 L 21.425781 13.070312 C 21.425781 14.441406 20.550781 15.59375 19.285156 16.347656 C 18.015625 17.144531 16.355469 17.585938 14.476562 17.585938 C 12.597656 17.585938 10.9375 17.144531 9.671875 16.347656 C 8.449219 15.59375 7.574219 14.441406 7.574219 13.070312 L 7.574219 12.050781 C 7.574219 10.410156 8.839844 9.082031 10.546875 8.328125 Z M 17.753906 8.683594 L 18.324219 5.496094 C 18.453125 4.695312 17.886719 3.945312 17.054688 3.945312 C 16.355469 3.945312 15.789062 4.519531 15.789062 5.230469 L 15.789062 8.152344 C 15.613281 8.109375 15.394531 8.109375 15.222656 8.109375 C 14.957031 8.109375 14.742188 8.0625 14.476562 8.0625 C 14.214844 8.0625 13.953125 8.0625 13.691406 8.109375 C 13.515625 8.109375 13.296875 8.152344 13.125 8.152344 L 13.125 5.273438 C 13.125 4.5625 12.554688 3.988281 11.855469 3.988281 C 11.070312 3.988281 10.457031 4.742188 10.632812 5.539062 L 11.199219 8.726562 C 9.367188 9.4375 8.140625 10.675781 8.140625 12.09375 L 8.140625 13.113281 C 8.140625 15.285156 10.984375 17.054688 14.476562 17.054688 C 17.972656 17.054688 20.8125 15.285156 20.8125 13.113281 L 20.8125 12.09375 C 20.859375 10.632812 19.632812 9.394531 17.753906 8.683594 Z M 17.753906 8.683594 "/>
<path style=" stroke:none;fill-rule:nonzero;fill:rgb(99.607843%,86.27451%,56.470588%);fill-opacity:1;" d="M 20.859375 13.070312 C 20.859375 15.238281 18.015625 17.011719 14.523438 17.011719 C 11.027344 17.011719 8.1875 15.238281 8.1875 13.070312 L 8.1875 12.050781 L 20.902344 12.050781 L 20.902344 13.070312 Z M 20.859375 13.070312 "/>
<path style=" stroke:none;fill-rule:evenodd;fill:rgb(81.960784%,53.333333%,30.980392%);fill-opacity:1;" d="M 10.632812 5.539062 C 10.457031 4.742188 11.070312 3.988281 11.855469 3.988281 C 12.554688 3.988281 13.125 4.5625 13.125 5.273438 L 13.125 8.195312 C 13.5625 8.152344 13.996094 8.109375 14.476562 8.109375 C 14.914062 8.109375 15.351562 8.152344 15.789062 8.195312 L 15.789062 5.273438 C 15.789062 4.5625 16.355469 3.988281 17.054688 3.988281 C 17.84375 3.988281 18.453125 4.742188 18.324219 5.539062 L 17.753906 8.726562 C 19.589844 9.4375 20.859375 10.675781 20.859375 12.09375 C 20.859375 14.265625 18.015625 16.039062 14.523438 16.039062 C 11.027344 16.039062 8.1875 14.265625 8.1875 12.09375 C 8.1875 10.675781 9.410156 9.4375 11.246094 8.726562 Z M 10.632812 5.539062 "/>
<path style=" stroke:none;fill-rule:nonzero;fill:rgb(38.823529%,18.823529%,0.392157%);fill-opacity:1;" d="M 12.730469 11.785156 C 12.730469 12.359375 12.425781 12.847656 12.03125 12.847656 C 11.636719 12.847656 11.332031 12.359375 11.332031 11.785156 C 11.332031 11.207031 11.636719 10.722656 12.03125 10.722656 C 12.425781 10.722656 12.730469 11.207031 12.730469 11.785156 Z M 12.730469 11.785156 "/>
<path style=" stroke:none;fill-rule:nonzero;fill:rgb(38.823529%,18.823529%,0.392157%);fill-opacity:1;" d="M 17.582031 11.785156 C 17.582031 12.359375 17.273438 12.847656 16.882812 12.847656 C 16.488281 12.847656 16.183594 12.359375 16.183594 11.785156 C 16.183594 11.207031 16.488281 10.722656 16.882812 10.722656 C 17.273438 10.722656 17.582031 11.207031 17.582031 11.785156 Z M 17.582031 11.785156 "/>
</g>
</svg>
