<svg width="36" height="36" viewBox="0 0 36 36" fill="none" xmlns="http://www.w3.org/2000/svg">
<circle cx="17.5903" cy="17.9487" r="17.5278" fill="url(#paint0_linear_1670_9891)"/>
<path d="M17.2263 19.0265H16.2263C15.4597 19.0265 14.8397 18.3865 14.8397 17.5931C14.8397 17.3198 15.0663 17.0931 15.3397 17.0931C15.613 17.0931 15.8397 17.3198 15.8397 17.5931C15.8397 17.8331 16.013 18.0265 16.2263 18.0265H17.2263C17.3797 18.0265 17.4997 17.8865 17.4997 17.7131C17.4997 17.4798 17.4597 17.4665 17.3063 17.4131L15.6997 16.8531C15.1197 16.6531 14.833 16.2465 14.833 15.6131C14.833 14.8931 15.4063 14.2998 16.1063 14.2998H17.1063C17.873 14.2998 18.493 14.9398 18.493 15.7331C18.493 16.0065 18.2663 16.2331 17.993 16.2331C17.7197 16.2331 17.493 16.0065 17.493 15.7331C17.493 15.4931 17.3197 15.2998 17.1063 15.2998H16.1063C15.953 15.2998 15.833 15.4398 15.833 15.6131C15.833 15.8465 15.873 15.8598 16.0263 15.9131L17.633 16.4731C18.213 16.6798 18.493 17.0865 18.493 17.7131C18.4997 18.4398 17.9263 19.0265 17.2263 19.0265Z" fill="white"/>
<path d="M16.667 19.5597C16.3937 19.5597 16.167 19.3331 16.167 19.0597V18.5664C16.167 18.2931 16.3937 18.0664 16.667 18.0664C16.9403 18.0664 17.167 18.2931 17.167 18.5664V19.0597C17.167 19.3397 16.9403 19.5597 16.667 19.5597Z" fill="white"/>
<path d="M16.667 15.2934C16.3937 15.2934 16.167 15.0668 16.167 14.7934V14.2734C16.167 14.0001 16.3937 13.7734 16.667 13.7734C16.9403 13.7734 17.167 14.0001 17.167 14.2734V14.7934C17.167 15.0668 16.9403 15.2934 16.667 15.2934Z" fill="white"/>
<path d="M16.6597 22.4805C13.4463 22.4805 10.833 19.8671 10.833 16.6538C10.833 13.4405 13.4463 10.8271 16.6597 10.8271C19.873 10.8271 22.4863 13.4405 22.4863 16.6538C22.4863 19.8671 19.8663 22.4805 16.6597 22.4805ZM16.6597 11.8338C13.9997 11.8338 11.833 14.0005 11.833 16.6605C11.833 19.3205 13.9997 21.4805 16.6597 21.4805C19.3197 21.4805 21.4863 19.3138 21.4863 16.6538C21.4863 13.9938 19.3197 11.8338 16.6597 11.8338Z" fill="white"/>
<path d="M21.3464 25.1469C20.113 25.1469 18.953 24.5469 18.2397 23.5335C18.0797 23.3069 18.133 22.9935 18.3597 22.8335C18.5864 22.6735 18.8997 22.7269 19.0597 22.9535C19.5864 23.7002 20.4397 24.1402 21.3464 24.1402C22.893 24.1402 24.1464 22.8869 24.1464 21.3402C24.1464 20.4402 23.7064 19.5869 22.973 19.0602C22.7464 18.9002 22.6997 18.5869 22.8597 18.3602C23.0197 18.1335 23.333 18.0869 23.5597 18.2469C24.553 18.9602 25.1464 20.1135 25.1464 21.3402C25.1464 23.4469 23.4464 25.1469 21.3464 25.1469Z" fill="white"/>
<defs>
<linearGradient id="paint0_linear_1670_9891" x1="7.7419" y1="-14.9823" x2="-23.0644" y2="31.2716" gradientUnits="userSpaceOnUse">
<stop stop-color="#0E56C0"/>
<stop offset="1" stop-color="#59588D"/>
</linearGradient>
</defs>
</svg>
