<svg width="36" height="36" viewBox="0 0 36 36" fill="none" xmlns="http://www.w3.org/2000/svg">
<circle cx="17.5903" cy="17.7437" r="17.5278" fill="url(#paint0_linear_1668_9839)"/>
<path d="M14.5869 22.5997C14.3136 22.5997 14.0869 22.3731 14.0869 22.0997V20.7197C14.0869 20.4464 14.3136 20.2197 14.5869 20.2197C14.8602 20.2197 15.0869 20.4464 15.0869 20.7197V22.0997C15.0869 22.3797 14.8602 22.5997 14.5869 22.5997Z" fill="white"/>
<path d="M18 22.5997C17.7267 22.5997 17.5 22.373 17.5 22.0997V19.333C17.5 19.0597 17.7267 18.833 18 18.833C18.2733 18.833 18.5 19.0597 18.5 19.333V22.0997C18.5 22.3797 18.2733 22.5997 18 22.5997Z" fill="white"/>
<path d="M21.4131 22.5998C21.1398 22.5998 20.9131 22.3731 20.9131 22.0998V17.9531C20.9131 17.6798 21.1398 17.4531 21.4131 17.4531C21.6864 17.4531 21.9131 17.6798 21.9131 17.9531V22.0998C21.9131 22.3798 21.6931 22.5998 21.4131 22.5998Z" fill="white"/>
<path d="M14.5867 18.7869C14.36 18.7869 14.16 18.6336 14.1 18.4069C14.0334 18.1403 14.1934 17.8669 14.4667 17.8003C16.92 17.1869 19.08 15.8469 20.7267 13.9336L21.0334 13.5736C21.2134 13.3669 21.5267 13.3403 21.74 13.5203C21.9467 13.7003 21.9734 14.0136 21.7934 14.2269L21.4867 14.5869C19.7067 16.6669 17.36 18.1136 14.7067 18.7736C14.6667 18.7869 14.6267 18.7869 14.5867 18.7869Z" fill="white"/>
<path d="M21.4133 16.3471C21.14 16.3471 20.9133 16.1204 20.9133 15.8471V14.4004H19.46C19.1866 14.4004 18.96 14.1737 18.96 13.9004C18.96 13.6271 19.1866 13.4004 19.46 13.4004H21.4133C21.6866 13.4004 21.9133 13.6271 21.9133 13.9004V15.8537C21.9133 16.1271 21.6933 16.3471 21.4133 16.3471Z" fill="white"/>
<path d="M19.9997 25.1663H15.9997C12.3797 25.1663 10.833 23.6197 10.833 19.9997V15.9997C10.833 12.3797 12.3797 10.833 15.9997 10.833H19.9997C23.6197 10.833 25.1663 12.3797 25.1663 15.9997V19.9997C25.1663 23.6197 23.6197 25.1663 19.9997 25.1663ZM15.9997 11.833C12.9263 11.833 11.833 12.9263 11.833 15.9997V19.9997C11.833 23.073 12.9263 24.1663 15.9997 24.1663H19.9997C23.073 24.1663 24.1663 23.073 24.1663 19.9997V15.9997C24.1663 12.9263 23.073 11.833 19.9997 11.833H15.9997Z" fill="white"/>
<defs>
<linearGradient id="paint0_linear_1668_9839" x1="7.7419" y1="-15.1874" x2="-23.0644" y2="31.0665" gradientUnits="userSpaceOnUse">
<stop stop-color="#0E56C0"/>
<stop offset="1" stop-color="#59588D"/>
</linearGradient>
</defs>
</svg>
