<svg width="29" height="30" viewBox="0 0 29 30" fill="none" xmlns="http://www.w3.org/2000/svg">
<rect x="0.0908203" y="0.318359" width="28.7009" height="28.7009" rx="14.3505" fill="url(#paint0_linear_1690_10356)"/>
<path d="M21.3199 16.94L16.5199 8.3C15.8749 7.1375 14.9824 6.5 13.9999 6.5C13.0174 6.5 12.1249 7.1375 11.4799 8.3L6.67986 16.94C6.07236 18.0425 6.00486 19.1 6.49236 19.9325C6.97986 20.765 7.93986 21.2225 9.19986 21.2225H18.7999C20.0599 21.2225 21.0199 20.765 21.5074 19.9325C21.9949 19.1 21.9274 18.035 21.3199 16.94ZM13.4374 11.75C13.4374 11.4425 13.6924 11.1875 13.9999 11.1875C14.3074 11.1875 14.5624 11.4425 14.5624 11.75V15.5C14.5624 15.8075 14.3074 16.0625 13.9999 16.0625C13.6924 16.0625 13.4374 15.8075 13.4374 15.5V11.75ZM14.5324 18.2825C14.4949 18.3125 14.4574 18.3425 14.4199 18.3725C14.3749 18.4025 14.3299 18.425 14.2849 18.44C14.2399 18.4625 14.1949 18.4775 14.1424 18.485C14.0974 18.4925 14.0449 18.5 13.9999 18.5C13.9549 18.5 13.9024 18.4925 13.8499 18.485C13.8049 18.4775 13.7599 18.4625 13.7149 18.44C13.6699 18.425 13.6249 18.4025 13.5799 18.3725C13.5424 18.3425 13.5049 18.3125 13.4674 18.2825C13.3324 18.14 13.2499 17.945 13.2499 17.75C13.2499 17.555 13.3324 17.36 13.4674 17.2175C13.5049 17.1875 13.5424 17.1575 13.5799 17.1275C13.6249 17.0975 13.6699 17.075 13.7149 17.06C13.7599 17.0375 13.8049 17.0225 13.8499 17.015C13.9474 16.9925 14.0524 16.9925 14.1424 17.015C14.1949 17.0225 14.2399 17.0375 14.2849 17.06C14.3299 17.075 14.3749 17.0975 14.4199 17.1275C14.4574 17.1575 14.4949 17.1875 14.5324 17.2175C14.6674 17.36 14.7499 17.555 14.7499 17.75C14.7499 17.945 14.6674 18.14 14.5324 18.2825Z" fill="white"/>
<defs>
<linearGradient id="paint0_linear_1690_10356" x1="-14.2596" y1="14.6688" x2="14.4413" y2="43.3697" gradientUnits="userSpaceOnUse">
<stop stop-color="#E3507A"/>
<stop offset="0.192353" stop-color="#FF3D00"/>
<stop offset="0.686424" stop-color="#DE0F62"/>
<stop offset="0.817657" stop-color="#C8304D"/>
<stop offset="1" stop-color="#E3507A"/>
</linearGradient>
</defs>
</svg>
