<svg width="14" height="14" viewBox="0 0 14 14" fill="none" xmlns="http://www.w3.org/2000/svg">
<path d="M7.00033 1.16699C3.78616 1.16699 1.16699 3.78616 1.16699 7.00033C1.16699 10.2145 3.78616 12.8337 7.00033 12.8337C10.2145 12.8337 12.8337 10.2145 12.8337 7.00033C12.8337 3.78616 10.2145 1.16699 7.00033 1.16699ZM8.96033 8.34199C9.12949 8.51116 9.12949 8.79116 8.96033 8.96033C8.87283 9.04783 8.76199 9.08866 8.65116 9.08866C8.54033 9.08866 8.42949 9.04783 8.34199 8.96033L7.00033 7.61866L5.65866 8.96033C5.57116 9.04783 5.46033 9.08866 5.34949 9.08866C5.23866 9.08866 5.12783 9.04783 5.04033 8.96033C4.87116 8.79116 4.87116 8.51116 5.04033 8.34199L6.38199 7.00033L5.04033 5.65866C4.87116 5.48949 4.87116 5.20949 5.04033 5.04033C5.20949 4.87116 5.48949 4.87116 5.65866 5.04033L7.00033 6.38199L8.34199 5.04033C8.51116 4.87116 8.79116 4.87116 8.96033 5.04033C9.12949 5.20949 9.12949 5.48949 8.96033 5.65866L7.61866 7.00033L8.96033 8.34199Z" fill="#C8304D"/>
</svg>
